# xmcd CD database file
#
# Track frame offsets:
#	150
#	21117
#	30212
#	48722
#	90237
#	108747
#	131735
#	150957
#	167072
#	198540
#
# Disc length: 2845 seconds
#
# Revision: 0
# Processed by: cddbd v1.5PL3 Copyright (c) Steve Scherf et al.
# Submitted via: CDex 1.51
#
DISCID=760b1b0a
DTITLE=don shirley - tonal expressions
DYEAR=1955
DGENRE=Jazz
TTITLE0=I Cover the Waterfront
TTITLE1=No Two People
TTITLE2=Secret Love
TTITLE3=The Man I Love
TTITLE4=Love is Here to Stay
TTITLE5=Dancing on the Ceiling
TTITLE6=They Can't Take That Away From Me
TTITLE7=Answer Me My Love
TTITLE8=Medley from New Faces
TTITLE9=My Funny Valentine
EXTD=YEAR: 1955
EXTT0=
EXTT1=
EXTT2=
EXTT3=
EXTT4=
EXTT5=
EXTT6=
EXTT7=
EXTT8=
EXTT9=
PLAYORDER=
